# xmcd CD database file
#
# Track frame offsets:
#	150
#	25804
#	49113
#	83141
#	111515
#	154117
#
# Disc length: 2707 seconds
#
# Revision: 0
# Processed by: cddbd v1.5.1PL2 Copyright (c) Steve Scherf et al.
# Submitted via: CDex 1.51
#
DISCID=440a9106
DTITLE=Nelson and Meuller - Serenity Music: Massage - Disc2
DYEAR=2002
DGENRE=New Age
TTITLE0=Hands Of Light
TTITLE1=Planet Hope
TTITLE2=Healing Touch
TTITLE3=Magic Fingers
TTITLE4=Reflections
TTITLE5=Midnight Voyage
EXTD=YEAR: 2002
EXTT0=
EXTT1=
EXTT2=
EXTT3=
EXTT4=
EXTT5=
PLAYORDER=
